<?xml version="1.0" encoding="UTF-8" standalone="no"?>
<!-- Created with Inkscape (http://www.inkscape.org/) -->
<!-- 
Alternate "Ultra-flat" looking icon corresponding with the theme created by steftrikia at
http://gnome-look.org/content/show.php/Ultra-Flat-Icons?content=167477
-->


<svg
   xmlns:dc="http://purl.org/dc/elements/1.1/"
   xmlns:cc="http://creativecommons.org/ns#"
   xmlns:rdf="http://www.w3.org/1999/02/22-rdf-syntax-ns#"
   xmlns:svg="http://www.w3.org/2000/svg"
   xmlns="http://www.w3.org/2000/svg"
   xmlns:xlink="http://www.w3.org/1999/xlink"
   xmlns:sodipodi="http://sodipodi.sourceforge.net/DTD/sodipodi-0.dtd"
   xmlns:inkscape="http://www.inkscape.org/namespaces/inkscape"
   id="svg4023"
   height="256"
   width="256"
   version="1.1"
   inkscape:version="0.48.5 r10040"
   sodipodi:docname="lutris.svg">
  <sodipodi:namedview
     pagecolor="#ffffff"
     bordercolor="#666666"
     borderopacity="1"
     objecttolerance="10"
     gridtolerance="10"
     guidetolerance="10"
     inkscape:pageopacity="0"
     inkscape:pageshadow="2"
     inkscape:window-width="1920"
     inkscape:window-height="1012"
     id="namedview153"
     showgrid="false"
     inkscape:zoom="2.9776902"
     inkscape:cx="165.60996"
     inkscape:cy="129.81347"
     inkscape:window-x="0"
     inkscape:window-y="29"
     inkscape:window-maximized="1"
     inkscape:current-layer="g4035" />
  <defs
     id="defs4025">
    <linearGradient
       x1="188.21001"
       y1="134.67999"
       gradientTransform="matrix(1.9006,0.04962,-0.04962,1.9006,-33.292,342.14)"
       x2="269.69"
       gradientUnits="userSpaceOnUse"
       y2="134.67999"
       id="linearGradient3245">
      <stop
         offset=".1348"
         style="stop-color:#A3817A"
         id="stop3247" />
      <stop
         offset=".2393"
         style="stop-color:#856962"
         id="stop3249" />
      <stop
         offset=".4077"
         style="stop-color:#5B4741"
         id="stop3251" />
      <stop
         offset=".572"
         style="stop-color:#3B2C26"
         id="stop3253" />
      <stop
         offset="1"
         style="stop-color:#231913"
         id="stop3255" />
      <stop
         offset="1"
         style="stop-color:#150D08"
         id="stop3257" />
      <stop
         offset="1"
         style="stop-color:#100904"
         id="stop3259" />
    </linearGradient>
    <linearGradient
       id="linearGradient3356"
       y2="115.93"
       gradientUnits="userSpaceOnUse"
       x2="205.08"
       gradientTransform="matrix(0.9975,0.0701,-0.0701,0.9975,18.782,-36.411)"
       y1="57.817001"
       x1="215.33">
      <stop
         id="stop281"
         style="stop-color:#0D0D0D"
         offset="0" />
      <stop
         id="stop283"
         style="stop-color:#151515"
         offset=".3366" />
      <stop
         id="stop285"
         style="stop-color:#2C2C2C"
         offset=".8733" />
      <stop
         id="stop287"
         style="stop-color:#333"
         offset="1" />
    </linearGradient>
    <linearGradient
       id="linearGradient3354"
       y2="127.33"
       gradientUnits="userSpaceOnUse"
       x2="187.02"
       gradientTransform="matrix(0.9925,0.1219,-0.1219,0.9925,41.424,-64.904)"
       y1="114.44"
       x1="164.7">
      <stop
         id="stop238"
         style="stop-color:#816661"
         offset="0" />
      <stop
         id="stop240"
         style="stop-color:#5C4843"
         offset=".2029" />
      <stop
         id="stop242"
         style="stop-color:#3B2C27"
         offset=".4243" />
      <stop
         id="stop244"
         style="stop-color:#231914"
         offset=".6365" />
      <stop
         id="stop246"
         style="stop-color:#150D08"
         offset=".8334" />
      <stop
         id="stop248"
         style="stop-color:#100904"
         offset="1" />
    </linearGradient>
    <linearGradient
       id="linearGradient3352"
       y2="44.581001"
       gradientUnits="userSpaceOnUse"
       x2="250.97"
       gradientTransform="matrix(0.9997,0.0261,-0.0261,0.9997,7.4079,-13.052)"
       y1="44.581001"
       x1="238.63">
      <stop
         id="stop229"
         style="stop-color:#5D4946"
         offset="0" />
      <stop
         id="stop231"
         style="stop-color:#6C4D3A"
         offset="1" />
    </linearGradient>
    <linearGradient
       id="linearGradient3425"
       y2="104.7"
       gradientUnits="userSpaceOnUse"
       x2="251.64999"
       gradientTransform="matrix(1.9006,0.04962,-0.04962,1.9006,-33.292,342.14)"
       y1="104.7"
       x1="186.39999">
      <stop
         id="stop216"
         style="stop-color:#5D4946"
         offset="0" />
      <stop
         id="stop218"
         style="stop-color:#6C4D3A"
         offset="1" />
    </linearGradient>
    <linearGradient
       id="linearGradient3428"
       y2="39.798"
       gradientUnits="userSpaceOnUse"
       x2="249.33"
       gradientTransform="matrix(1.9006,0.04962,-0.04962,1.9006,-33.292,342.14)"
       y1="46.689999"
       x1="237.39">
      <stop
         id="stop209"
         style="stop-color:#7F5F52"
         offset=".3315" />
      <stop
         id="stop211"
         style="stop-color:#715346"
         offset=".9831" />
    </linearGradient>
    <linearGradient
       id="linearGradient3431"
       y2="62.097"
       gradientUnits="userSpaceOnUse"
       x2="277.70001"
       gradientTransform="matrix(1.9006,0.04962,-0.04962,1.9006,-33.292,342.14)"
       y1="62.097"
       x1="239.48">
      <stop
         id="stop202"
         style="stop-color:#5D4946"
         offset="0" />
      <stop
         id="stop204"
         style="stop-color:#6C4D3A"
         offset="1" />
    </linearGradient>
    <linearGradient
       id="linearGradient3344"
       y2="96.472"
       gradientUnits="userSpaceOnUse"
       x2="257.81"
       gradientTransform="matrix(0.9997,0.0261,-0.0261,0.9997,7.4079,-13.052)"
       y1="96.472"
       x1="156.3">
      <stop
         id="stop195"
         style="stop-color:#5D4946"
         offset="0" />
      <stop
         id="stop197"
         style="stop-color:#6C4D3A"
         offset="1" />
    </linearGradient>
    <clipPath
       id="XMLID_30_">
      <path
         id="use186"
         d="m 280.21,59.204 -0.346,-4.689 c 0,0 -0.616,-4.105 -1.131,-6.864 -0.514,-2.758 -2.549,-4.972 -6.451,-7.471 -3.901,-2.498 -9.609,-4.34 -14.76,-4.786 -4.27,-0.368 -11.135,1.713 -12.952,1.991 l -0.097,-0.334 c -23.729,-16.768 -62.793,0.906 -72.751,19.138 -7.787,14.26 -10.43,22.738 -8.551,37.676 2.306,18.341 12.99,40.296 36.715,48.222 l -5.345,-31.02 c -4.76,-5.556 -7.077,-25.259 19.807,-38.204 11.327,-5.453 27.395,-6.337 39.99,-1.604 l 1.482,0.601 c 4.688,2.682 8.528,3.219 8.528,3.219 l 5.849,1.838 5.115,-0.204 3.081,-1.736 c 0,0 3.19,-1.816 3.919,-3.89 0.73,-2.072 0.437,-5.171 0.437,-5.171 l -1.485,-4.063 -1.054,-2.649 z"
         inkscape:connector-curvature="0" />
    </clipPath>
    <clipPath
       id="XMLID_29_">
      <path
         id="use174"
         d="m 214.24,123.17 c -6.146,-2.038 -11.888,-4.917 -18.132,-10.339 -6.646,-9.149 -2.385,-20.869 -0.857,-23.532 1.529,-2.661 5.104,-8.296 16.58,-14.725 12.913,-5.682 25.13,-5.446 30.013,-5.146 6.06,0.073 13.005,2.707 13.783,3.098 0.777,0.392 5.427,2.307 5.427,2.307 l 4.721,1.385 c 0,0 0.853,0.229 2.863,0.711 14.149,2.168 14.606,-9.293 14.606,-9.293 l -0.402,-2.195 -1.233,-2.979 -0.588,-1.277 -0.353,-0.692 c 0,0 -0.102,-0.871 -0.245,-1.756 -0.271,3.307 -3.175,2.576 -3.175,2.576 -10.997,-2.019 -14.368,-4.154 -23.672,-9.482 -6.59,-4.264 -18.467,-1.895 -25.81,0.577 -9.57,3.277 -17.688,4.75 -25.445,10.115 -7.781,5.048 -10.565,6.94 -15.046,15.195 -12.354,22.755 -2.3,45.88 15.246,51.48 15.771,6.197 41.118,11.267 64.462,-10.685 -10e-4,10e-4 -13.575,15.345 -52.743,4.657 z"
         inkscape:connector-curvature="0" />
    </clipPath>
    <linearGradient
       id="linearGradient3455"
       y2="14.798"
       gradientUnits="userSpaceOnUse"
       x2="300.22"
       gradientTransform="matrix(1.8951,-0.15171,0.15171,1.8951,-100.87,455.18)"
       y1="79.504997"
       x1="188.14">
      <stop
         id="stop154"
         style="stop-color:#A3817A"
         offset=".2865" />
      <stop
         id="stop156"
         style="stop-color:#947369"
         offset=".5184" />
      <stop
         id="stop158"
         style="stop-color:#6E4F3C"
         offset=".9769" />
      <stop
         id="stop160"
         style="stop-color:#6C4D3A"
         offset="1" />
    </linearGradient>
    <clipPath
       id="XMLID_27_">
      <path
         id="use147"
         d="m 268.01,87.464 c 2.501,0.64 2.905,2.477 0.901,4.108 l -31.159,25.313 c -2.006,1.627 -5.658,2.428 -8.163,1.788 l -38.89,-9.956 c -2.502,-0.642 -2.905,-2.48 -0.901,-4.108 l 31.159,-25.315 c 2.007,-1.627 5.659,-2.428 8.162,-1.787 l 38.891,9.957 z"
         inkscape:connector-curvature="0" />
    </clipPath>
    <linearGradient
       id="linearGradient3467"
       y2="134.67999"
       gradientUnits="userSpaceOnUse"
       x2="269.69"
       gradientTransform="matrix(1.9006,0.04962,-0.04962,1.9006,-33.292,342.14)"
       y1="134.67999"
       x1="188.21001">
      <stop
         id="stop121"
         style="stop-color:#A3817A"
         offset=".1348" />
      <stop
         id="stop123"
         style="stop-color:#856962"
         offset=".2393" />
      <stop
         id="stop125"
         style="stop-color:#5B4741"
         offset=".4077" />
      <stop
         id="stop127"
         style="stop-color:#3B2C26"
         offset=".572" />
      <stop
         id="stop129"
         style="stop-color:#231913"
         offset=".7288" />
      <stop
         id="stop131"
         style="stop-color:#150D08"
         offset=".875" />
      <stop
         id="stop133"
         style="stop-color:#100904"
         offset="1" />
    </linearGradient>
    <linearGradient
       id="linearGradient3334"
       y2="265.23001"
       gradientUnits="userSpaceOnUse"
       x2="204.39999"
       gradientTransform="matrix(0.9935,0.1139,-0.1139,0.9935,54.333,-154.95)"
       y1="217.71001"
       x1="204.39999">
      <stop
         id="stop46"
         style="stop-color:#1C1C1C"
         offset="0" />
      <stop
         id="stop48"
         style="stop-color:#121212"
         offset=".2232" />
      <stop
         id="stop50"
         style="stop-color:#040404"
         offset=".6282" />
      <stop
         id="stop52"
         offset="1" />
    </linearGradient>
    <linearGradient
       id="linearGradient3336"
       y2="251.67"
       gradientUnits="userSpaceOnUse"
       x2="202.74001"
       gradientTransform="matrix(0.9935,0.1139,-0.1139,0.9935,54.333,-154.95)"
       y1="210.75"
       x1="202.74001">
      <stop
         id="stop59"
         style="stop-color:#3B3B3B"
         offset="0" />
      <stop
         id="stop61"
         style="stop-color:#282828"
         offset=".3176" />
      <stop
         id="stop63"
         style="stop-color:#1B1B1B"
         offset=".6733" />
      <stop
         id="stop65"
         style="stop-color:#171717"
         offset="1" />
    </linearGradient>
    <linearGradient
       id="linearGradient3338"
       y2="204.33"
       gradientUnits="userSpaceOnUse"
       x2="229.39"
       gradientTransform="matrix(0.9935,0.1139,-0.1139,0.9935,54.132,-154.86)"
       y1="257.54001"
       x1="176.17">
      <stop
         id="stop70"
         style="stop-color:#fff"
         offset="0" />
      <stop
         id="stop72"
         style="stop-color:#D6D6D6"
         offset=".0907" />
      <stop
         id="stop74"
         style="stop-color:#9E9E9E"
         offset=".2274" />
      <stop
         id="stop76"
         style="stop-color:#6D6D6D"
         offset=".3649" />
      <stop
         id="stop78"
         style="stop-color:#464646"
         offset=".5002" />
      <stop
         id="stop80"
         style="stop-color:#272727"
         offset=".6328" />
      <stop
         id="stop82"
         style="stop-color:#121212"
         offset=".7621" />
      <stop
         id="stop84"
         style="stop-color:#040404"
         offset=".8863" />
      <stop
         id="stop86"
         offset="1" />
    </linearGradient>
    <linearGradient
       id="linearGradient4015"
       y2="274.41"
       gradientUnits="userSpaceOnUse"
       y1="274.41"
       gradientTransform="matrix(-0.6804,-0.7328,0.7328,-0.6804,685.75,990.43)"
       x2="1015.9"
       x1="919.75">
      <stop
         id="stop29"
         style="stop-color:#FBBF00"
         offset=".2865" />
      <stop
         id="stop31"
         style="stop-color:#F8AE02"
         offset=".4507" />
      <stop
         id="stop33"
         style="stop-color:#EF8109"
         offset=".775" />
      <stop
         id="stop35"
         style="stop-color:#E85F0E"
         offset="1" />
    </linearGradient>
    <linearGradient
       inkscape:collect="always"
       xlink:href="#linearGradient3428"
       id="linearGradient3154"
       gradientUnits="userSpaceOnUse"
       gradientTransform="matrix(2.0956099,0.05666489,-0.05471123,2.1704411,-322.23543,-93.560858)"
       x1="237.39"
       y1="46.689999"
       x2="249.33"
       y2="39.798" />
    <linearGradient
       inkscape:collect="always"
       xlink:href="#linearGradient3245"
       id="linearGradient3190"
       gradientUnits="userSpaceOnUse"
       gradientTransform="matrix(2.0956099,0.05666489,-0.05471123,2.1704411,-322.73918,-96.41542)"
       x1="267.6683"
       y1="133.61127"
       x2="269.69"
       y2="134.67999" />
    <linearGradient
       inkscape:collect="always"
       xlink:href="#linearGradient3245"
       id="linearGradient4080"
       gradientUnits="userSpaceOnUse"
       gradientTransform="matrix(2.0956099,0.05666489,-0.05471123,2.1704411,-322.73918,-96.41542)"
       x1="267.6683"
       y1="133.61127"
       x2="269.69"
       y2="134.67999" />
    <linearGradient
       inkscape:collect="always"
       xlink:href="#linearGradient3428"
       id="linearGradient4082"
       gradientUnits="userSpaceOnUse"
       gradientTransform="matrix(2.0956099,0.05666489,-0.05471123,2.1704411,-322.23543,-93.560858)"
       x1="237.39"
       y1="46.689999"
       x2="249.33"
       y2="39.798" />
  </defs>
  <metadata
     id="metadata4028">
    <rdf:RDF>
      <cc:Work
         rdf:about="">
        <dc:format>image/svg+xml</dc:format>
        <dc:type
           rdf:resource="http://purl.org/dc/dcmitype/StillImage" />
        <dc:title />
      </cc:Work>
    </rdf:RDF>
  </metadata>
  <g
     id="g4035"
     transform="translate(-9.4032616,3.3583077)">
    <path
       transform="matrix(1.2265322,0,0,1.2265322,-259.29725,-56.474219)"
       d="m 419.36887,148.66437 c 0,52.72233 -42.73989,95.46222 -95.46222,95.46222 -52.72234,0 -95.46223,-42.73989 -95.46223,-95.46222 0,-52.722334 42.73989,-95.462229 95.46223,-95.462229 52.72233,0 95.46222,42.739895 95.46222,95.462229 z"
       sodipodi:ry="95.462227"
       sodipodi:rx="95.462227"
       sodipodi:cy="148.66437"
       sodipodi:cx="323.90665"
       id="path4033"
       style="fill:#ffdd55;fill-opacity:1;stroke:#000000;stroke-width:1.65262675;stroke-miterlimit:4;stroke-opacity:1;stroke-dasharray:none"
       sodipodi:type="arc" />
    <g
       id="g39"
       transform="matrix(2.0962715,0,0,2.1711263,-337.7634,-65.228413)">
      <g
         style="fill:#191919;fill-opacity:1"
         id="g41">
        <g
           style="fill:#191919;fill-opacity:1"
           id="g43">
          <path
             id="path54"
             style="fill:#191919;fill-opacity:1"
             d="m 270.13,88.926 c 0.513,4.045 1.647,13.331 1.732,14.148 0.07,0.704 -0.245,1.479 -1.172,2.231 l -29.801,25.322 c -2.002,1.627 -5.651,2.425 -8.151,1.787 l -38.853,-9.943 c -1.778,-0.457 -2.075,-1.348 -2.367,-2.68 -0.287,-1.542 -2.491,-11.472 -2.839,-13.055 L 223.14,88.651 c 2.006,-1.63 5.656,-2.429 8.157,-1.789 l 38.833,2.064 z"
             inkscape:connector-curvature="0" />
        </g>
        <g
           style="fill:#191919;fill-opacity:1"
           id="g56">
          <path
             id="path67"
             style="fill:#191919;fill-opacity:1"
             d="m 268.04,87.232 c 2.498,0.64 2.9,2.475 0.899,4.104 l -31.125,25.288 c -2.004,1.624 -5.653,2.424 -8.155,1.785 l -38.851,-9.945 c -2.499,-0.642 -2.901,-2.478 -0.899,-4.104 l 31.13,-25.288 c 2.005,-1.626 5.654,-2.427 8.154,-1.786 l 38.851,9.946 z"
             inkscape:connector-curvature="0" />
        </g>
        <path
           style="fill:#191919;fill-opacity:1"
           id="path90"
           d="m 244.17,95.265 c 0.861,3.931 -4.931,8.538 -12.935,10.292 -8.007,1.753 -15.195,-0.007 -16.057,-3.936 -0.861,-3.929 4.932,-8.537 12.938,-10.291 8.004,-1.753 15.193,0.007 16.054,3.935 z"
           inkscape:connector-curvature="0" />
        <ellipse
           style="fill:#191919;fill-opacity:1"
           id="ellipse94"
           d="m 242.054,96.607002 c 0,3.457858 -5.71016,6.260998 -12.754,6.260998 -7.04384,0 -12.754,-2.80314 -12.754,-6.260998 0,-3.457855 5.71016,-6.261 12.754,-6.261 7.04384,0 12.754,2.803145 12.754,6.261 z"
           rx="12.754"
           transform="matrix(0.9768,-0.2141,0.2141,0.9768,-15.368,51.344)"
           ry="6.2610002"
           cy="96.607002"
           cx="229.3"
           sodipodi:cx="229.3"
           sodipodi:cy="96.607002"
           sodipodi:rx="12.754"
           sodipodi:ry="6.2610002" />
        <ellipse
           style="fill:#191919;fill-opacity:1"
           id="ellipse98"
           d="m 238.254,94.522003 c 0,2.502955 -4.1342,4.532 -9.234,4.532 -5.09979,0 -9.234,-2.029045 -9.234,-4.532 0,-2.502954 4.13421,-4.532 9.234,-4.532 5.0998,0 9.234,2.029046 9.234,4.532 z"
           rx="9.2340002"
           transform="matrix(0.9768,-0.2142,0.2142,0.9768,-14.932,51.251)"
           ry="4.5320001"
           cy="94.522003"
           cx="229.02"
           sodipodi:cx="229.02"
           sodipodi:cy="94.522003"
           sodipodi:rx="9.2340002"
           sodipodi:ry="4.5320001" />
      </g>
      <g
         id="g102">
        <g
           id="g104">
          <g
             id="g106">
            <g
               id="g108">
              <path
                 id="path110"
                 style="fill:#e85c0f"
                 d="m 254.66,88.291 c -4.104,0.896 -7.902,2.035 -7.897,4.271 l 0.319,1.616 c 0.134,0.614 0.539,1.142 1.203,1.567 1.693,1.085 4.89,1.325 8.145,0.611 4.665,-1.024 8.064,-3.666 7.578,-5.888 l -0.063,-0.377 -0.253,-1.36 c -0.937,-2.032 -4.975,-1.332 -9.032,-0.44 z"
                 inkscape:connector-curvature="0" />
              <path
                 id="path112"
                 style="fill:#1a171b"
                 d="m 260.58,87.256 c -1.694,0 -3.866,0.425 -5.961,0.885 -4.166,0.91 -8.022,2.076 -8.017,4.422 0,0.193 0.319,1.635 0.322,1.649 0.366,1.671 2.611,2.709 5.857,2.709 1.184,0 2.42,-0.139 3.674,-0.415 4.828,-1.06 8.208,-3.727 7.694,-6.071 -0.006,-0.029 -0.035,-0.203 -0.062,-0.371 -0.177,-1.08 -0.223,-1.304 -0.265,-1.397 v -0.001 l -10e-4,-10e-4 c -0.436,-0.948 -1.496,-1.409 -3.241,-1.409 z m -13.671,5.306 c -0.004,-2.05 3.47,-3.18 7.776,-4.121 2.233,-0.49 4.301,-0.878 5.895,-0.878 1.48,0 2.55,0.334 2.962,1.23 0.056,0.125 0.279,1.574 0.307,1.708 0.029,0.134 0.044,0.27 0.044,0.407 0.004,2.051 -3.201,4.354 -7.504,5.298 -1.261,0.277 -2.485,0.408 -3.608,0.408 -2.964,0 -5.216,-0.913 -5.557,-2.469 -0.03,-0.134 -0.315,-1.449 -0.315,-1.583 z"
                 inkscape:connector-curvature="0" />
            </g>
            <path
               id="path114"
               style="fill:#f19300"
               d="m 263.58,89.154 c 0.47,2.14 -2.868,4.69 -7.452,5.698 -4.581,1.003 -8.679,0.081 -9.148,-2.058 -0.472,-2.141 2.866,-4.695 7.449,-5.698 4.584,-1.005 8.683,-0.083 9.151,2.058 z"
               inkscape:connector-curvature="0" />
          </g>
        </g>
      </g>
    </g>
    <path
       sodipodi:nodetypes="cscccsccc"
       id="path135"
       style="fill:url(#linearGradient4080)"
       d="m 66.394178,170.52166 c 0,0 11.83697,28.43551 54.952102,36.12787 43.11293,7.69213 62.12529,6.26277 88.68262,-6.06898 15.68014,-7.73552 28.02005,-18.45968 34.31922,-28.89164 -8.37732,23.62237 -30.91189,42.72669 -30.91189,42.72669 0,0 -30.24852,27.6167 -75.51209,27.47508 -46.936651,-0.14686 -61.872862,-24.26493 -61.872862,-24.26493 l -9.656659,-47.10352 z"
       inkscape:connector-curvature="0" />
    <g
       style="fill:#241f1c"
       id="g137"
       transform="matrix(2.0962715,0,0,2.1711263,-337.7634,-65.228413)">
      <path
         style="fill:#241f1c"
         id="path139"
         d="m 232.44,67.779 c 5.659,1.296 6.273,7.908 10.825,9.608 6.074,2.388 6.592,-3.89 3.456,-7.843"
         inkscape:connector-curvature="0" />
    </g>
    <path
       sodipodi:nodetypes="ccccccccccccccccccccccc"
       id="path162"
       style="fill:#a3817a;fill-opacity:1"
       d="m 249.62153,63.312495 -0.72529,-10.180152 c 0,0 -1.29126,-8.912215 -2.37082,-14.902797 -1.07745,-5.987841 -5.34322,-10.794536 -13.52234,-16.219497 -8.17735,-5.423362 -20.14237,-9.42245 -30.94018,-10.390732 -8.95083,-0.798961 -23.34103,3.719076 -27.15053,4.32261 l 7.52069,0.28236 C 117.24416,-7.9218268 67.076684,22.324079 42.503254,59.671245 c -6.110074,9.929673 -22.11861,32.15314 -20.436055,72.896665 0.763215,44.38911 35.44177,92.02611 83.444961,104.7777 L 70.75553,177.56549 c -9.978018,-12.0627 -15.546844,-56.50115 40.80727,-84.60634 23.74348,-11.838874 57.42584,-13.758537 83.8277,-3.482459 l 3.10659,1.304823 c 9.82707,5.822825 17.87652,6.98867 17.87652,6.98867 l 12.26097,3.990406 10.72216,-0.44291 6.4584,-3.768983 c 0,0 6.68685,-3.942675 8.21506,-8.445489 1.5302,-4.498475 0.91604,-11.226546 0.91604,-11.226546 l -3.11287,-8.821085 -2.2094,-5.75111 z"
       inkscape:connector-curvature="0" />
    <g
       id="g164"
       style="opacity:0.62999998"
       transform="matrix(2.0962715,0,0,2.1711263,-337.7634,-65.228413)">
      <path
         id="path166"
         style="fill:#ffffff"
         d="m 213.71,123.96 c -6.146,-2.039 -12.443,-5.396 -18.688,-10.818 -5.798,-9.202 -2.009,-21.432 -0.481,-24.093 1.528,-2.661 6.223,-8.886 16.834,-15.423 15.593,-4.613 24.575,-6.089 29.445,-5.403 4.871,0.687 14.045,3.165 14.823,3.555 0.777,0.391 3.654,1.601 3.654,1.601 l 7.094,2.424 c 0,0 -0.06,0.121 1.95,0.603 14.149,2.169 14.606,-9.292 14.606,-9.292 l -0.403,-2.196 -1.232,-2.979 -0.587,-1.277 -0.354,-0.692 c 0,0 -0.102,-0.871 -0.245,-1.756 -0.271,3.308 -2.137,3.726 -2.137,3.726 -10.997,-2.018 -12.457,-8.386 -24.052,-12.238 -7.842,-2.985 -19.125,-0.288 -26.466,2.183 -9.571,3.278 -16.888,4.5 -24.643,9.864 -7.782,5.048 -10.137,7.188 -15.047,15.196 -13.569,23.219 -2.619,46.779 14.928,52.381 19.817,7.173 41.056,10.264 65.061,-11.444 -10e-4,-0.002 -15.361,16.983 -54.06,6.078 z"
         inkscape:connector-curvature="0" />
    </g>
    <path
       id="path206"
       style="fill:#a3817a;fill-opacity:1"
       d="m 177.96327,13.088356 c 0,0 9.61537,-1.780228 19.2647,-3.1479735 9.65099,-1.3634061 17.4862,0.8944645 25.23861,3.9426745 7.74767,3.048165 15.83671,9.161966 17.57221,10.427619 1.73153,1.267937 7.06428,7.711655 8.03479,15.86891 0.97054,8.156683 2.20311,13.88187 1.89075,18.343573 -0.30814,4.463759 2.48615,10.431958 2.48615,10.431958 0,0 10.8794,19.806446 -7.24665,30.495348 -14.33606,8.145835 -39.54711,-3.712566 -42.64102,-5.425531 0,0 -15.33833,-6.513265 -24.92217,-7.787597 0.0609,-2.435951 0.33123,-3.534418 0.33123,-3.534418 0,0 13.99646,3.313103 19.6054,6.51315 5.6116,3.202332 18.45981,7.412001 18.45981,7.412001 0,0 18.50721,8.13933 28.30496,0.885831 9.79774,-7.253608 11.41967,-12.207732 9.66774,-20.586416 -1.74829,-8.380282 -4.10444,-8.443319 -5.1399,-13.961808 0,0 -0.81755,-6.524113 -1.2347,-13.241221 -0.41923,-6.719506 -1.94532,-16.313139 -7.70356,-21.34583 -5.76045,-5.034748 -14.6481,-10.560088 -19.31653,-12.110664 -4.67041,-1.54795 -16.57655,-4.105521 -23.08302,-2.859282 -6.50669,1.246125 -20.34967,3.703888 -20.34967,3.703888 l 0.78189,-4.022956 z"
       inkscape:connector-curvature="0" />
    <path
       id="path213"
       style="fill:url(#linearGradient4082)"
       d="m 201.36053,13.179714 c 0,0 -23.02458,12.376744 -26.18355,12.781004 1.04601,-2.09941 1.5281,-3.690869 1.68534,-7.425019 0.15519,-3.729924 1.22003,-9.4007528 5.23428,-10.4928252 4.01844,-1.0920496 6.90704,0.8489113 11.42849,2.1949932 4.51528,1.341709 5.06658,2.540214 7.83566,2.941847 z"
       inkscape:connector-curvature="0" />
    <path
       id="path220"
       style="fill:#a3817a;fill-opacity:1"
       d="M 177.68761,86.254809 C 137.1658,81.350362 105.49569,94.363758 90.109952,106.72589 74.72421,119.0855 65.766652,132.707 65.678444,157.44222 c -0.086,24.7375 25.187895,36.56724 25.187895,36.56724 13.545491,6.07463 34.371491,13.58038 50.151961,15.13005 21.32106,2.09724 36.35066,1.21803 46.74932,-0.62959 l 10.16458,-2.62917 c -27.19684,11.09419 -77.24185,8.02433 -110.602244,-10.33637 -26.282781,-14.57391 -25.469059,-36.03166 -24.61013,-48.78411 0.861553,-12.75246 11.526626,-40.73774 46.623624,-55.55603 35.09921,-14.813724 68.81024,-8.465018 68.81024,-8.465018"
       inkscape:connector-curvature="0" />
    <g
       style="fill:#a3817a;fill-opacity:1"
       id="g222"
       transform="matrix(2.0962715,0,0,2.1711263,-337.7634,-65.228413)">
      <g
         style="fill:#a3817a;fill-opacity:1"
         id="g224">
        <path
           style="fill:#a3817a;fill-opacity:1"
           id="path226"
           d="m 254.82,36.879 c 0.244,-0.004 0.567,0.227 0.794,0.318 -1.522,0.815 -2.613,2.194 -4.249,2.965 -1.363,0.751 -3.088,1.098 -4.606,1.266 0.683,-1.669 -0.127,-4.848 1.984,-5.814 1.432,-0.596 3.237,1.21 4.985,1.132 0.001,-0.001 0.747,0.138 1.092,0.133 z"
           inkscape:connector-curvature="0" />
      </g>
      <path
         id="path233"
         style="fill:#a3817a;fill-opacity:1"
         d="m 257.19,36.113 c 0,0 -3.962,-0.553 -5.757,-1.201 -1.794,-0.648 -4.143,-0.967 -5.016,1.599 -0.873,2.566 -0.21,5.303 -1.718,5.489 0.499,-0.967 0.729,-1.7 0.804,-3.42 0.074,-1.718 0.582,-4.33 2.497,-4.833 1.917,-0.503 3.295,0.391 5.452,1.011 2.154,0.618 2.417,1.17 3.738,1.355 z"
         inkscape:connector-curvature="0" />
    </g>
    <g
       id="g235"
       transform="matrix(2.0962715,0,0,2.1711263,-337.7634,-65.228413)">
      <path
         id="path250"
         style="fill:#241f1c"
         d="m 187.0302,77.93932 -0.066,0.526 c 4.425,-0.217 9.847,-0.469 13.87,2.262 3.119,2.038 5.623,4.851 9.622,3.475 2.734,-0.928 3.067,-2.271 2.019,-4.855 -0.885,-2.101 -2.222,-4.549 -4.031,-5.94 -2.606,-1.996 -9.343,-1.299 -9.681,-5.473 -0.254,-1.973 1.03,-3.457 2.169,-4.895 -0.002,0 -13.046,3.174 -13.902,14.9 z"
         inkscape:connector-curvature="0" />
    </g>
    <g
       id="g252"
       transform="matrix(2.0962715,0,0,2.1711263,-337.7634,-65.228413)">
      <g
         id="g254">
        <path
           id="path256"
           d="m 277.56,61.156 c 0,0 -0.542,1.698 -3.087,1.847 -2.544,0.151 -2.104,3.666 0.102,5.634 2.207,1.969 3.933,2.509 5.404,0.998 1.469,-1.508 5.077,-4.01 -2.419,-8.479 z"
           inkscape:connector-curvature="0" />
        <path
           id="path258"
           d="m 266.97,56.813 c -1.383,1.737 -3.938,2.036 -5.708,0.672 -1.77,-1.371 -2.087,-3.887 -0.703,-5.625 1.38,-1.734 3.937,-2.034 5.706,-0.668 1.771,1.369 2.084,3.884 0.705,5.621 z"
           inkscape:connector-curvature="0" />
        <path
           id="path260"
           d="m 281.74,58.295 c -0.128,1.544 -1.196,2.703 -2.384,2.586 -1.187,-0.114 -2.045,-1.456 -1.914,-3.003 0.129,-1.542 1.195,-2.7 2.382,-2.585 1.187,0.118 2.045,1.459 1.916,3.002 z"
           inkscape:connector-curvature="0" />
      </g>
    </g>
    <path
       id="path268"
       style="opacity:0.4;fill:#1a171b"
       d="m 133.13137,138.91136 c 0,0 2.99126,2.2948 3.15896,0.93789 0.1635,-1.35472 -29.92137,-118.44583 -29.92137,-118.44583 0,0 20.19309,86.60638 26.76241,117.49799 z"
       inkscape:connector-curvature="0" />
    <g
       style="fill:#191919;fill-opacity:1"
       id="g276"
       transform="matrix(2.0962715,0,0,2.1711263,-337.7634,-65.228413)">
      <g
         style="fill:#191919;fill-opacity:1"
         id="g278">
        <path
           id="path289"
           style="fill:#191919;fill-opacity:1"
           d="m 226.1,35.507 c 1.563,8.111 7.774,56.093 7.97,57.099 0.267,1.376 -0.972,2.774 -4.542,3.463 -3.572,0.69 -5.721,-0.055 -5.986,-1.433 -0.204,-1.056 -12.116,-49.906 -13.316,-56.127 0.712,-0.253 15.022,-2.99 15.874,-3.002 z"
           inkscape:connector-curvature="0" />
      </g>
      <path
         id="path291"
         style="fill:#191919;fill-opacity:1"
         d="m 226.14,35.652 c 0.339,1.66 -2.958,3.652 -7.369,4.447 -4.41,0.795 -8.263,0.094 -8.601,-1.565 -0.343,-1.662 2.955,-3.652 7.367,-4.448 4.408,-0.794 8.26,-0.094 8.603,1.566 z"
         inkscape:connector-curvature="0" />
      <path
         style="fill:#191919;fill-opacity:1"
         id="path293"
         d="m 225.45,35.063 c 0.317,1.544 -2.757,3.401 -6.865,4.143 -4.111,0.741 -7.699,0.088 -8.018,-1.459 -0.317,-1.547 2.757,-3.402 6.865,-4.144 4.11,-0.741 7.698,-0.088 8.018,1.46 z"
         inkscape:connector-curvature="0" />
    </g>
  </g>
  <path
     sodipodi:type="arc"
     style="fill:#000000;fill-opacity:0;stroke:none"
     id="path4031"
     sodipodi:cx="175.72649"
     sodipodi:cy="31.830004"
     sodipodi:rx="168.1275"
     sodipodi:ry="108.28551"
     d="m 343.85399,31.830004 a 168.1275,108.28551 0 1 1 -336.2550062,0 168.1275,108.28551 0 1 1 336.2550062,0 z" />
</svg>
